# xmcd CD database file
#
# Track frame offsets:
#	150
#	36612
#	74752
#	102882
#
# Disc length: 1929 seconds
#
# Revision: 0
# Processed by: cddbd v1.5.1PL0 Copyright (c) Steve Scherf et al.
# Submitted via: CDex 1.51
#
DISCID=3a078704
DTITLE=Karin Krog - JOY
DYEAR=1968
DGENRE=Jazz
TTITLE0=Mr.JOY
TTITLE1=Karin's Mode
TTITLE2=Round about Midnight
TTITLE3=Maiden Voyage - Lazy Afternoon
EXTD=YEAR: 1968
EXTT0=
EXTT1=
EXTT2=
EXTT3=
PLAYORDER=
